<svg width="153" height="153" viewBox="0 0 153 153" fill="none" xmlns="http://www.w3.org/2000/svg">
<circle cx="76.5" cy="76.5" r="76.5" fill="#9A5EEC"/>
<g clip-path="url(#clip0_35_9510)">
<path opacity="0.8" d="M77.5035 87.4651C58.5194 87.4651 43.0723 71.9934 43.0723 52.9859C43.0723 33.9784 58.5194 18.5 77.5035 18.5C96.4875 18.5 111.935 33.9717 111.935 52.9859C111.935 72.0002 96.4875 87.4651 77.5035 87.4651ZM77.5035 22.4115C60.6697 22.4115 46.9776 36.1254 46.9776 52.9859C46.9776 69.8465 60.6697 83.5603 77.5035 83.5603C94.3372 83.5603 108.029 69.8465 108.029 52.9859C108.029 36.1254 94.3305 22.4115 77.5035 22.4115Z" fill="white"/>
<g opacity="0.6">
<path d="M55.4312 126.5C36.4472 126.5 21 111.035 21 92.0208C21 73.0066 36.4472 57.5349 55.4312 57.5349C74.4153 57.5349 89.8557 73.0066 89.8557 92.0141C89.8557 111.022 74.4086 126.5 55.4312 126.5ZM55.4312 61.4464C38.5974 61.4464 24.9053 75.1603 24.9053 92.0208C24.9053 108.881 38.5974 122.595 55.4312 122.595C72.265 122.595 85.9571 108.881 85.9571 92.0208C85.9571 75.1603 72.265 61.4464 55.4312 61.4464Z" fill="white"/>
<path d="M99.5757 126.5C80.5917 126.5 65.1445 111.028 65.1445 92.0141C65.1445 72.9999 80.5917 57.5349 99.5757 57.5349C118.56 57.5349 134 73.0066 134 92.0141C134 111.022 118.553 126.5 99.5757 126.5ZM99.5757 61.4464C82.742 61.4464 69.0499 75.1603 69.0499 92.0208C69.0499 108.881 82.742 122.595 99.5757 122.595C116.41 122.595 130.102 108.881 130.102 92.0208C130.102 75.1603 116.41 61.4464 99.5757 61.4464Z" fill="white"/>
</g>
</g>
<defs>
<clipPath id="clip0_35_9510">
<rect width="113" height="108" fill="white" transform="translate(21 18.5)"/>
</clipPath>
</defs>
</svg>
