<svg width="153" height="153" viewBox="0 0 153 153" fill="none" xmlns="http://www.w3.org/2000/svg">
<path d="M153 76.5C153 118.75 118.75 153 76.5 153C34.2502 153 0 118.75 0 76.5C0 34.2502 34.2502 0 76.5 0C118.75 0 153 34.2502 153 76.5Z" fill="#008F98"/>
<g clip-path="url(#clip0_35_9539)">
<path opacity="0.8" d="M76.5001 113.907C55.8755 113.907 39.0928 97.1246 39.0928 76.5001C39.0928 55.8755 55.8755 39.0928 76.5001 39.0928C97.1246 39.0928 113.907 55.8755 113.907 76.5001C113.907 97.1246 97.1246 113.907 76.5001 113.907ZM76.5001 43.2404C58.1593 43.2404 43.2404 58.1593 43.2404 76.5001C43.2404 94.8409 58.1593 109.76 76.5001 109.76C94.8409 109.76 109.76 94.8409 109.76 76.5001C109.76 58.1593 94.8409 43.2404 76.5001 43.2404Z" fill="white"/>
<path opacity="0.4" d="M76.5 130C47.0039 130 23 106.003 23 76.5C23 46.9967 47.0039 23 76.5 23C105.996 23 130 47.0039 130 76.5C130 105.996 105.996 130 76.5 130ZM76.5 27.1406C49.2876 27.1477 27.1477 49.2876 27.1477 76.5C27.1477 103.712 49.2876 125.852 76.5 125.852C103.712 125.852 125.852 103.712 125.852 76.5C125.852 49.2876 103.72 27.1477 76.5 27.1477V27.1406Z" fill="white"/>
<path d="M92.3865 74.4298H78.5704V60.6137C78.5704 59.4683 77.6455 58.5435 76.5001 58.5435C75.3547 58.5435 74.4298 59.4683 74.4298 60.6137V74.4298H60.6137C59.4683 74.4298 58.5435 75.3547 58.5435 76.5001C58.5435 77.6455 59.4683 78.5704 60.6137 78.5704H74.4298V92.3865C74.4298 93.5319 75.3547 94.4568 76.5001 94.4568C77.6455 94.4568 78.5704 93.5319 78.5704 92.3865V78.5704H92.3865C93.5319 78.5704 94.4568 77.6455 94.4568 76.5001C94.4568 75.3547 93.5319 74.4298 92.3865 74.4298Z" fill="white"/>
</g>
<defs>
<clipPath id="clip0_35_9539">
<rect width="107" height="107" fill="white" transform="translate(23 23)"/>
</clipPath>
</defs>
</svg>
