<svg width="153" height="153" viewBox="0 0 153 153" fill="none" xmlns="http://www.w3.org/2000/svg">
<circle cx="76.5" cy="76.5" r="76.5" fill="#4C139C"/>
<g clip-path="url(#clip0_35_9525)">
<path d="M76.4111 76.0572C63.7204 76.0572 53.3994 65.6072 53.3994 52.7578C53.3994 39.9084 63.7204 29.4585 76.4111 29.4585C89.1019 29.4585 99.4228 39.9084 99.4228 52.7578C99.4228 65.6072 89.1019 76.0572 76.4111 76.0572ZM76.4111 33.8164C66.0976 33.8164 57.7035 42.3154 57.7035 52.7578C57.7035 63.2003 66.0976 71.6993 76.4111 71.6993C86.7247 71.6993 95.1187 63.2003 95.1187 52.7578C95.1187 42.3154 86.7247 33.8164 76.4111 33.8164Z" fill="url(#paint0_linear_35_9525)"/>
<path d="M46.7626 91.3138L63.5064 69.9879C64.2447 69.046 64.0897 67.6781 63.1595 66.9306C62.2292 66.1831 60.8782 66.3401 60.14 67.2819L43.1894 88.877C41.4323 88.0473 39.4833 87.5689 37.4162 87.5689C29.8563 87.5689 23.6992 93.7955 23.6992 101.457C23.6992 109.119 29.849 115.346 37.4162 115.346C44.9834 115.346 51.1331 109.119 51.1331 101.457C51.1331 97.4582 49.4425 93.8628 46.7626 91.3288V91.3138ZM37.4162 110.973C32.2262 110.973 28.0033 106.697 28.0033 101.442C28.0033 96.1875 32.2262 91.9118 37.4162 91.9118C42.6062 91.9118 46.829 96.1875 46.829 101.442C46.829 106.697 42.6062 110.973 37.4162 110.973Z" fill="url(#paint1_linear_35_9525)"/>
<path d="M78.5523 96.6731C78.5523 96.6731 78.5523 96.6432 78.5523 96.6282V74.0016C78.5523 72.7982 77.5926 71.8264 76.404 71.8264C75.2154 71.8264 74.2556 72.7982 74.2556 74.0016V96.6282C74.2556 96.6282 74.2556 96.6581 74.2556 96.6731C67.7146 97.7195 62.687 103.453 62.687 110.367C62.687 118.021 68.8368 124.256 76.404 124.256C83.9712 124.256 90.1209 118.029 90.1209 110.367C90.1209 103.453 85.0933 97.7195 78.5523 96.6731V96.6731ZM76.404 119.898C71.214 119.898 66.9911 115.622 66.9911 110.367C66.9911 105.112 71.214 100.837 76.404 100.837C81.594 100.837 85.8168 105.112 85.8168 110.367C85.8168 115.622 81.594 119.898 76.404 119.898Z" fill="url(#paint2_linear_35_9525)"/>
<path d="M115.621 87.5611C113.495 87.5611 111.494 88.0694 109.693 88.9439L92.6829 67.2741C91.9446 66.3323 90.5936 66.1753 89.6634 66.9228C88.7332 67.6703 88.5781 69.0382 89.3164 69.9801L106.149 91.4256C103.543 93.9521 101.904 97.5027 101.904 101.442C101.904 109.096 108.054 115.33 115.621 115.33C123.188 115.33 129.338 109.104 129.338 101.442C129.338 93.7802 123.188 87.5536 115.621 87.5536V87.5611ZM115.621 110.973C110.431 110.973 106.208 106.697 106.208 101.442C106.208 96.1871 110.431 91.9115 115.621 91.9115C120.811 91.9115 125.034 96.1871 125.034 101.442C125.034 106.697 120.811 110.973 115.621 110.973V110.973Z" fill="url(#paint3_linear_35_9525)"/>
</g>
<defs>
<linearGradient id="paint0_linear_35_9525" x1="76.5366" y1="82.8892" x2="76.0977" y2="-18.5006" gradientUnits="userSpaceOnUse">
<stop stop-color="white"/>
<stop offset="1" stop-color="white" stop-opacity="0"/>
</linearGradient>
<linearGradient id="paint1_linear_35_9525" x1="44.2156" y1="172.626" x2="43.4209" y2="-4.37257" gradientUnits="userSpaceOnUse">
<stop stop-color="white"/>
<stop offset="1" stop-color="white" stop-opacity="0"/>
</linearGradient>
<linearGradient id="paint2_linear_35_9525" x1="76.7362" y1="185.879" x2="75.8885" y2="-4.41022" gradientUnits="userSpaceOnUse">
<stop stop-color="white"/>
<stop offset="1" stop-color="white" stop-opacity="0"/>
</linearGradient>
<linearGradient id="paint3_linear_35_9525" x1="109.471" y1="172.94" x2="108.676" y2="-4.85129" gradientUnits="userSpaceOnUse">
<stop stop-color="white"/>
<stop offset="1" stop-color="white" stop-opacity="0"/>
</linearGradient>
<clipPath id="clip0_35_9525">
<rect width="105.631" height="94.797" fill="white" transform="translate(23.6992 29.4585)"/>
</clipPath>
</defs>
</svg>
