<svg width="64" height="64" viewBox="0 0 64 64" fill="none" xmlns="http://www.w3.org/2000/svg">
<path d="M61.3335 56V50.6667C61.3317 48.3033 60.5451 46.0074 59.0971 44.1395C57.6492 42.2716 55.6218 40.9375 53.3335 40.3467" stroke="#00BFCB" stroke-width="2" stroke-linecap="round" stroke-linejoin="round"/>
<path d="M45.3332 56V50.6667C45.3332 47.8377 44.2094 45.1246 42.209 43.1242C40.2086 41.1238 37.4955 40 34.6665 40H13.3332C10.5042 40 7.79109 41.1238 5.7907 43.1242C3.79031 45.1246 2.6665 47.8377 2.6665 50.6667V56" stroke="#00BFCB" stroke-width="2" stroke-linecap="round" stroke-linejoin="round"/>
<path d="M42.6665 8.34668C44.9609 8.93415 46.9946 10.2685 48.4469 12.1395C49.8991 14.0105 50.6874 16.3116 50.6874 18.68C50.6874 21.0485 49.8991 23.3496 48.4469 25.2205C46.9946 27.0915 44.9609 28.4259 42.6665 29.0133" stroke="#00BFCB" stroke-width="2" stroke-linecap="round" stroke-linejoin="round"/>
<path d="M24.0002 29.3333C29.8912 29.3333 34.6668 24.5577 34.6668 18.6667C34.6668 12.7756 29.8912 8 24.0002 8C18.1091 8 13.3335 12.7756 13.3335 18.6667C13.3335 24.5577 18.1091 29.3333 24.0002 29.3333Z" stroke="#00BFCB" stroke-width="2" stroke-linecap="round" stroke-linejoin="round"/>
</svg>
